<svg width="57" height="39" viewBox="0 0 57 39" fill="none" xmlns="http://www.w3.org/2000/svg">
<path d="M48.3702 5.78747L48.95 9.50164C48.6962 9.44642 48.3505 9.52268 48.0297 9.72778C47.5445 10.0394 47.3039 10.5285 47.4919 10.819C47.6812 11.1109 48.2295 11.0951 48.7146 10.7835C49.1051 10.5324 49.3378 10.1669 49.3142 9.8816V9.87897C49.3115 9.86451 49.3089 9.84873 49.3063 9.83427L48.8409 6.85242L51.9555 6.35675L52.3618 8.96128C52.108 8.90343 51.7609 8.97968 51.4388 9.1861C50.9537 9.4977 50.7144 9.98547 50.9024 10.2773C51.0917 10.5692 51.6387 10.5534 52.1238 10.2405C52.5156 9.99073 52.747 9.62523 52.7233 9.33993L52.7246 9.33861L52.0791 5.19714L48.3702 5.78747Z" fill="#009FB7"/>
<path d="M56.2613 5.68893C56.2653 5.66789 56.2653 5.64686 56.2653 5.62582L56.6374 0.0236655L56.2311 0L55.8945 5.08283C55.5764 4.93558 55.0965 4.93558 54.6127 5.11438C53.879 5.38391 53.4175 5.95977 53.5806 6.40021C53.7436 6.84065 54.4693 6.98001 55.203 6.70918C55.7933 6.49224 56.2074 6.07547 56.2613 5.69156V5.68893Z" fill="#009FB7"/>
<path d="M24.5456 38.4157C26.3757 38.3145 28.3518 37.9372 30.1517 37.2167C31.9516 36.4962 33.5622 35.4983 34.9413 34.3163C34.9676 34.2861 35.0018 34.273 35.0294 34.2427C40.1543 29.6726 42.275 22.1707 39.706 15.5009L39.2261 14.3019L7.76016 26.8893L8.24005 28.087C10.9931 34.7239 17.6339 38.7208 24.5456 38.4157Z" fill="white"/>
<path d="M30.199 8.35918C29.1538 8.39468 28.0218 8.58532 26.9871 8.97317C25.951 9.36102 25.0202 9.91059 24.2195 10.568C24.2037 10.5851 24.184 10.5929 24.1682 10.61C21.1877 13.1528 19.8861 17.4073 21.2692 21.2451L21.452 21.7341L39.5561 14.9448L39.3733 14.457C37.885 10.6363 34.1459 8.27241 30.199 8.35918Z" fill="white"/>
<path d="M39.6744 11.1386L39.5942 13.6458C39.5903 13.6879 39.6126 13.7313 39.6494 13.7575L41.6728 15.2472C41.7596 15.3116 41.7359 15.4523 41.6321 15.4799L39.2221 16.1741C39.1788 16.1833 39.1472 16.2174 39.1314 16.2595L38.3386 18.6405C38.3031 18.7431 38.1638 18.7641 38.1033 18.6747L36.6899 16.5935C36.6663 16.5553 36.6255 16.5343 36.5808 16.5356L34.0657 16.5172C33.9566 16.5172 33.8974 16.3897 33.9618 16.3029L35.5014 14.3203C35.5264 14.2834 35.5356 14.244 35.5211 14.198L34.7638 11.8104C34.731 11.7039 34.8322 11.6119 34.9347 11.6474L37.2973 12.5006C37.3394 12.5177 37.3828 12.5085 37.4209 12.4849L39.4601 11.0242C39.5495 10.9637 39.6744 11.0308 39.6744 11.1386Z" fill="white"/>
<path d="M32.7812 11.3804C32.63 11.3804 32.4854 11.4094 32.346 11.4672C32.2067 11.5251 32.0831 11.6066 31.9766 11.7131C31.8688 11.8209 31.7873 11.9431 31.7294 12.0825C31.6716 12.2232 31.6426 12.3678 31.6426 12.519C31.6426 12.6702 31.6716 12.8148 31.7294 12.9555C31.7873 13.0949 31.8688 13.2171 31.9766 13.3249C32.0831 13.4314 32.2067 13.5143 32.346 13.5721C32.4854 13.63 32.63 13.6589 32.7812 13.6589C32.9324 13.6589 33.0783 13.63 33.2177 13.5721C33.3571 13.5143 33.4807 13.4314 33.5872 13.3249C33.6937 13.2171 33.7765 13.0949 33.8343 12.9555C33.8922 12.8148 33.9211 12.6702 33.9211 12.519C33.9211 12.3678 33.8922 12.2232 33.8343 12.0825C33.7765 11.9431 33.6937 11.8209 33.5872 11.7131C33.4807 11.6066 33.3571 11.5251 33.2177 11.4672C33.0783 11.4094 32.9324 11.3804 32.7812 11.3804Z" fill="#009FB7"/>
<path d="M10.7078 25.9939C10.0281 24.8724 9.06441 21.2818 7.04758 19.5726C6.15223 18.818 4.54955 18.818 3.96712 19.833C3.73309 20.2392 3.70548 20.7362 3.76859 21.2043C3.93293 22.4651 4.70338 23.5445 5.50012 24.5503C5.55665 24.616 5.58558 24.5911 5.50012 24.5503C4.54955 24.0862 3.45173 23.8009 2.41045 23.8482C1.2469 23.9008 0.0202328 24.7607 0.000511418 25.9255C-0.0310426 27.2679 1.40335 28.129 2.69312 28.5156C5.6053 29.3965 8.73572 29.3097 11.7386 28.8114C12.1041 28.7496 12.7536 28.6326 13.2046 28.5222C13.2887 28.5011 13.2966 28.392 13.2164 28.3591C12.9574 28.2658 11.8517 28.0751 10.7078 25.9939Z" fill="white"/>
<path d="M30.4765 24.7738C29.7363 24.5372 29.1486 24.1428 28.3452 24.077C27.5064 24.0087 26.6689 24.1572 25.8945 24.4964C24.1841 25.2458 22.964 26.767 21.6558 28.0476C20.4304 29.2479 19.1039 30.3234 17.6471 31.224C16.9463 31.6579 16.2246 32.0562 15.4791 32.4073C14.7928 32.7307 14.0552 33.2093 13.315 32.8609C13.0376 32.7307 12.8877 32.402 13.0166 32.1062C13.365 31.3082 14.2906 31.1556 15.0202 30.8059C15.9774 30.3471 16.903 29.8264 17.7865 29.2335C19.4746 28.0975 20.8498 26.6552 22.3776 25.3273C23.7068 24.1717 25.1806 23.1304 26.9516 22.8701C28.2703 22.6755 30.3463 22.9174 30.8827 24.3728C30.9813 24.6397 30.7236 24.854 30.4765 24.7738Z" fill="#009FB7"/>
<path d="M14.4404 32.0497C15.3213 32.7347 16.0168 33.346 17.183 32.9319C18.0297 32.6308 18.8671 32.2219 19.6455 31.7736C20.4028 31.3371 21.1272 30.8296 21.7465 30.209C22.3473 29.6069 22.772 28.843 23.4399 28.3171C23.8737 27.9753 24.4798 28.3776 24.4207 28.8982C24.1761 31.0689 21.3363 32.6716 19.6034 33.5406C18.6134 34.0376 17.5064 34.5924 16.3783 34.5793C15.195 34.5661 14.2603 33.8009 13.5608 32.9069C13.1269 32.3508 13.8961 31.6276 14.4404 32.0497Z" fill="#009FB7"/>
<path d="M20.5895 33.0252C21.7715 34.4833 23.741 32.9845 24.7836 32.0957C25.7696 31.2569 26.477 30.0224 27.5327 29.2966C27.8732 29.0613 28.5201 29.3176 28.3873 29.8028C27.8995 31.579 25.8787 32.9924 24.3576 33.847C22.9587 34.6306 21.1391 34.8475 20.1214 33.3763C19.9071 33.0673 20.3542 32.7347 20.5895 33.0252Z" fill="#009FB7"/>
<path d="M26.9871 31.5869C28.4241 32.0181 29.4207 30.376 29.8138 29.2282C30.153 28.233 30.1149 27.4034 29.8269 26.4107C29.6784 25.8993 30.1596 25.2143 30.7315 25.5167C32.4801 26.4449 31.9871 28.8075 31.1023 30.2222C30.1109 31.8065 28.6016 32.7123 26.757 32.1273C26.3994 32.0129 26.6347 31.4817 26.9871 31.5869Z" fill="#009FB7"/>
<path d="M43.4136 13.4025C43.0744 13.5866 42.6865 13.3407 42.5603 12.8608C42.4393 12.3889 42.6155 11.8551 42.956 11.6592C43.0467 11.6105 43.1388 11.5895 43.2269 11.5934C43.2321 11.5934 43.2334 11.5895 43.2348 11.5869C43.2348 11.5829 43.2321 11.5842 43.2308 11.5816C42.7838 10.9584 42.3342 10.33 41.8845 9.69493C41.7504 9.50429 41.615 9.31365 41.4783 9.12038C41.4086 9.02572 41.3428 8.92974 41.2732 8.83508C41.1561 8.67205 41.0391 8.51034 40.9195 8.34468C40.8984 8.31838 40.88 8.28946 40.8616 8.26053C41.6728 7.37439 42.5024 6.4659 43.361 5.52454C43.386 5.55478 43.4044 5.58633 43.4254 5.61262C43.5437 5.7888 43.6647 5.95972 43.7843 6.13064C43.8553 6.22924 43.925 6.33311 43.996 6.43303C44.134 6.63419 44.2747 6.83666 44.4194 7.03124C44.9545 7.803 45.4909 8.56687 46.0233 9.3268C46.1377 9.48983 46.2192 9.58843 46.2718 9.81325C46.3862 10.3181 46.1851 10.8835 45.8143 11.0859C45.4462 11.291 45.0452 11.0347 44.9242 10.5285C44.8033 10.0328 45.0057 9.45827 45.3647 9.25186C45.4619 9.19401 45.5592 9.17297 45.6539 9.17297C45.6592 9.17297 45.6605 9.17166 45.6618 9.16903C45.6631 9.1664 45.6592 9.16377 45.6578 9.16114C45.199 8.50508 44.7375 7.84639 44.2747 7.18375C43.499 7.9989 42.7536 8.7838 42.0199 9.55293C42.5419 10.2866 43.0599 11.0176 43.5805 11.742C43.6923 11.8971 43.7725 11.9905 43.8225 12.2087C43.9408 12.686 43.7607 13.2119 43.4136 13.4025ZM43.8514 6.58686C43.783 6.4843 43.7107 6.38438 43.6436 6.28315C42.8706 7.11539 42.133 7.90949 41.4046 8.69177C41.4743 8.78775 41.5414 8.88504 41.611 8.9797C42.3407 8.20268 43.0796 7.41252 43.8514 6.58686Z" fill="white"/>
</svg>
